<svg version="1.1" id="Layer_1" xmlns="http://www.w3.org/2000/svg" xmlns:xlink="http://www.w3.org/1999/xlink" x="0px" y="0px"
	 width="100%" viewBox="0 0 1024 1024" enable-background="new 0 0 1024 1024" xml:space="preserve">
<path fill="#000000" opacity="1.000000" stroke="none" 
	d="
M645.234009,147.256531 
	C664.723450,122.646324 687.707764,103.385330 718.374451,95.343353 
	C755.006348,85.737038 789.680298,91.172028 821.950928,110.844421 
	C836.320251,119.604050 837.162781,122.717445 828.635559,137.200684 
	C806.733887,174.400131 774.255066,196.201248 731.449219,202.379440 
	C718.993652,204.177170 706.566528,203.676880 694.172302,201.549866 
	C692.321716,201.232285 690.282410,200.675354 688.387024,201.830322 
	C688.462402,203.985184 690.096802,205.087097 691.253479,206.406448 
	C719.803467,238.973480 736.472351,277.166931 744.265747,319.406036 
	C749.357788,347.004456 752.705811,374.951752 761.365723,401.801361 
	C769.556274,427.195404 780.081787,451.685822 790.897400,476.019318 
	C804.182861,505.909760 816.053711,536.192871 821.809448,568.569824 
	C833.239807,632.866943 827.938660,694.884888 796.536560,753.292358 
	C780.154175,783.763306 758.070557,809.624634 731.715759,831.865051 
	C689.713257,867.310303 641.801270,891.140503 588.352844,903.726379 
	C555.537842,911.453552 522.204834,912.872986 488.600342,911.586975 
	C462.187927,910.576172 436.189850,907.120361 410.726044,900.252869 
	C363.475494,887.509583 319.251678,868.345764 280.931305,837.155273 
	C231.348480,796.797668 199.933533,745.092224 184.673370,683.237305 
	C177.947281,655.973999 176.175751,628.256958 178.002197,600.428711 
	C180.343506,564.755676 189.725662,530.651367 203.960724,497.896423 
	C223.575134,452.763519 249.763275,411.681885 282.017303,374.639313 
	C308.530579,344.189728 330.863098,311.067169 350.642426,275.952301 
	C368.893707,243.550308 388.662537,212.048553 415.461700,185.719650 
	C438.782776,162.807755 465.390533,145.277435 497.389801,136.995773 
	C524.770691,129.909363 552.083557,131.273544 579.266479,138.402969 
	C591.293579,141.557404 589.773560,142.966370 592.773743,130.566971 
	C594.458435,123.604309 596.301392,116.694984 599.947571,110.416504 
	C603.377625,104.510406 607.466492,102.649963 614.136841,104.105988 
	C626.596375,106.825706 640.732422,118.935883 634.868652,138.466812 
	C633.530701,142.923126 632.030396,147.349304 630.275146,151.654999 
	C629.149170,154.417236 629.951294,155.882431 632.284851,157.381790 
	C634.850708,159.030426 636.544250,158.386200 638.208984,156.178268 
	C640.416016,153.251099 642.733398,150.407166 645.234009,147.256531 
M285.148346,812.353088 
	C287.992706,814.918701 290.713776,817.638855 293.703033,820.022827 
	C305.864746,829.721741 318.588959,838.483948 333.653107,843.201721 
	C338.958160,844.863159 342.575226,843.303528 344.490143,839.038757 
	C345.757416,836.216553 343.013000,834.477722 343.057098,832.150574 
	C347.117615,830.442078 396.499420,841.424377 399.402618,844.548523 
	C398.992035,847.323792 395.222626,847.278259 394.633667,850.525452 
	C400.129822,856.622498 407.883545,857.017639 415.139191,856.498840 
	C423.652771,855.890076 431.774475,856.950134 439.843506,859.001831 
	C454.893646,862.828369 469.769989,862.274841 484.818390,858.762573 
	C503.524292,854.396667 521.684082,848.427612 539.584778,841.566406 
	C541.589233,840.798157 543.618774,839.565735 545.755005,840.994751 
	C547.991333,842.490601 549.909790,842.935364 551.702454,840.342224 
	C552.430969,839.288330 553.707947,839.263245 554.911011,839.515991 
	C557.460022,840.051636 558.388489,838.584595 559.213501,836.467346 
	C560.346802,833.558899 561.450623,830.620850 564.574280,828.943359 
	C571.175964,825.398010 577.350891,821.170776 583.528015,816.916687 
	C617.363953,793.614136 643.780640,763.680176 663.801575,727.929871 
	C670.817688,715.401611 676.400452,702.224854 681.916931,689.004517 
	C684.651550,682.450928 685.861145,681.782471 692.386475,683.287415 
	C694.890015,683.864807 696.585754,683.159912 698.051819,681.281616 
	C699.511719,679.411316 700.351135,677.243103 701.145142,675.040710 
	C702.395142,671.573425 704.385071,670.067383 707.951477,672.422791 
	C712.390381,675.354431 716.197144,674.148254 719.378662,670.321167 
	C722.573608,666.477966 725.671448,662.554871 727.972168,658.070984 
	C734.660950,645.035156 741.988403,632.284241 747.918518,618.913025 
	C755.000854,602.943665 758.585449,586.122620 757.364258,568.349670 
	C756.408997,554.446350 750.755737,541.922729 747.310913,528.753601 
	C743.419189,513.875732 734.000732,504.124268 719.954590,498.497253 
	C713.718567,495.999054 707.904419,492.642212 702.778442,488.406738 
	C695.765747,482.612335 688.753235,476.600616 686.121887,467.288879 
	C683.543274,458.163879 680.923035,449.047028 678.568542,439.863159 
	C674.109741,422.471039 668.946472,405.163330 669.916809,386.894867 
	C670.487061,376.160492 669.317688,365.653534 666.829102,355.214081 
	C665.272156,348.682922 660.980164,345.590759 654.684326,347.076935 
	C649.423462,348.318756 648.166138,347.531372 647.963989,341.817688 
	C647.622192,332.158081 646.881653,322.541321 645.679077,312.957977 
	C642.151917,284.849426 635.805298,257.523956 621.883240,232.538559 
	C603.869629,200.210388 578.410095,177.631470 540.519165,171.829010 
	C533.396851,170.738312 526.212463,171.415741 519.066223,171.040527 
	C516.571533,170.909546 514.036743,170.935211 513.556824,167.382706 
	C512.631409,160.533279 507.878021,157.442810 501.227844,159.368362 
	C499.146423,159.971024 497.378418,159.999420 495.480835,158.534042 
	C494.527618,160.462296 493.105103,161.451553 491.208588,162.364227 
	C486.436096,164.660934 481.652802,167.061050 477.480469,170.442078 
	C475.851166,171.762329 474.768250,173.248489 476.719666,174.952606 
	C480.038605,177.850998 478.308899,179.057739 475.384003,180.618164 
	C466.865143,185.162979 458.294525,189.656830 450.079071,194.714600 
	C433.356171,205.009903 420.540253,219.395859 408.784454,234.901840 
	C385.460846,265.665894 360.194824,294.979462 340.014862,328.078918 
	C324.507202,353.514771 304.161499,375.247833 285.602478,398.347107 
	C249.679245,443.058594 221.396866,491.900818 205.183807,547.274109 
	C195.258377,581.173035 193.064041,615.635498 197.526581,650.565552 
	C201.608734,682.518250 212.411896,712.238892 227.933365,740.341858 
	C228.670273,741.676086 229.588425,742.659607 230.905548,743.547363 
	C237.344376,747.887390 240.494141,754.976868 246.343033,761.251892 
	C244.396057,761.062988 243.770767,761.001648 243.145355,760.941833 
	C242.408722,760.871277 241.545135,760.247742 241.025070,761.523560 
	C252.764221,780.681702 267.938690,796.929260 285.148346,812.353088 
M679.486694,782.013489 
	C678.478821,788.429382 677.471619,794.845398 676.462585,801.261108 
	C676.203674,802.907471 675.677002,804.721741 677.182373,805.945496 
	C678.951904,807.384094 680.669495,806.062378 682.289124,805.319763 
	C687.343628,803.002502 691.728699,799.725159 695.686707,795.842346 
	C703.668274,788.012390 710.690369,779.316956 718.133972,771.001831 
	C718.911865,770.132874 719.622314,769.201599 720.425964,768.358215 
	C722.631165,766.044067 725.053894,765.148071 727.927917,767.275513 
	C730.983154,769.537231 729.578125,771.955688 728.113892,774.262573 
	C721.190918,785.170288 712.403992,794.507629 703.204163,803.471252 
	C698.431946,808.120911 693.382935,812.487549 688.639099,817.164734 
	C684.416077,821.328552 685.586548,825.421692 691.232788,827.240417 
	C695.290771,828.547607 698.725952,826.991272 702.162170,825.153564 
	C712.400146,819.678284 720.994080,812.044678 729.569397,804.377869 
	C741.298767,793.891357 751.608398,782.185364 760.494812,769.179810 
	C764.313049,763.591675 765.892639,757.417664 766.523560,750.895508 
	C767.016479,745.800293 764.064087,740.568176 760.001587,739.672424 
	C755.183533,738.610168 752.240662,741.399292 749.950500,745.300842 
	C748.439636,747.874695 746.786560,750.407837 744.876160,752.690552 
	C743.436218,754.411133 741.603088,756.677490 739.004517,755.266663 
	C735.986816,753.628296 737.506592,750.891663 738.315369,748.606079 
	C739.926331,744.053772 742.003662,739.644653 743.321350,735.014893 
	C746.253845,724.712036 738.388977,715.675903 728.865662,718.690613 
	C717.431885,722.310059 707.116272,728.325989 699.299316,737.544128 
	C688.632263,750.123230 682.262024,764.853577 679.486694,782.013489 
z"/>
<path fill="#000000" opacity="1.000000" stroke="none" 
	d="
M553.204224,703.095947 
	C525.816711,754.937561 484.102722,787.387146 426.524353,797.866394 
	C391.479309,804.244568 357.389587,799.070679 325.285614,783.792297 
	C272.295929,758.574280 237.617157,717.982971 225.383743,659.912354 
	C218.247894,626.039368 222.522507,592.983459 236.303970,561.313904 
	C251.986694,525.275269 276.944366,497.552704 311.782959,478.960266 
	C316.774597,476.296356 321.589142,473.302185 326.552155,470.582306 
	C329.684326,468.865723 330.939850,466.475708 330.722534,462.848297 
	C330.267853,455.258698 331.596741,447.926544 334.892914,441.016876 
	C341.249847,427.691040 354.363892,421.212280 368.770264,424.382874 
	C383.125183,427.542084 396.373474,434.058441 410.408966,438.216919 
	C434.536926,445.365540 459.089996,449.108582 484.281982,447.595062 
	C496.062500,446.887268 507.798157,445.289276 519.582947,444.822998 
	C549.957092,443.621216 571.928955,457.588440 586.611145,483.541168 
	C598.249023,504.112671 601.140564,526.384033 598.619385,549.678284 
	C596.771118,566.755249 592.385010,582.979492 584.294006,598.152100 
	C581.463684,603.459656 577.816772,608.235413 574.174255,612.994141 
	C572.282898,615.465027 571.199829,618.004883 571.314087,621.241272 
	C572.327332,649.942261 566.050842,677.062866 553.204224,703.095947 
M487.997620,727.280701 
	C487.922821,725.021790 489.280243,723.698547 490.889771,722.349548 
	C492.545258,720.961975 494.530853,719.536804 494.036743,716.414062 
	C492.074646,717.089417 490.378876,717.384216 489.001282,718.209839 
	C486.448059,719.740173 485.426605,722.599792 484.652802,725.174011 
	C484.042114,727.205505 486.456207,727.521851 487.715057,728.574280 
	C484.205322,734.086121 478.009918,736.581360 473.618073,741.115295 
	C471.625916,743.171936 469.307098,744.948242 470.403870,748.341431 
	C471.463837,751.620605 474.105713,752.915405 477.122803,753.647400 
	C482.681732,754.996216 486.925720,752.541748 491.335205,749.363525 
	C511.410278,734.894287 526.141846,716.115845 537.107727,694.132141 
	C539.614929,689.105713 540.175842,684.031555 538.830139,678.635925 
	C537.752319,674.314514 534.967407,672.429565 530.683289,673.681274 
	C527.657898,674.565125 524.771484,675.928955 521.832092,677.101440 
	C519.770630,677.923828 517.532104,678.702820 515.572205,677.443298 
	C511.955902,675.118958 508.171295,672.972534 505.550049,669.334473 
	C500.668976,662.559937 499.879059,655.505981 502.761261,647.596802 
	C506.748657,636.654907 511.861847,626.875488 523.473877,622.292786 
	C526.583496,621.065613 528.454346,618.698120 530.241455,615.950256 
	C532.133484,613.041260 533.915955,609.237915 538.808838,611.327759 
	C540.077026,611.869385 541.374634,610.831482 542.452759,610.045288 
	C547.817078,606.133545 551.751404,601.499817 550.844055,594.199951 
	C550.269226,589.575012 549.840271,584.951721 548.634155,580.415527 
	C543.894470,562.589172 535.300293,546.826111 524.187256,532.156860 
	C519.269653,525.665588 513.502625,524.260864 506.296631,525.754333 
	C502.520599,526.537109 498.804932,527.126465 494.912567,526.696594 
	C488.793671,526.020813 482.652832,525.498840 476.508514,525.117920 
	C473.718964,524.944946 471.377045,524.178040 469.244446,522.322388 
	C459.253113,513.628601 447.230133,512.537842 435.052673,514.656616 
	C426.082458,516.217285 417.829559,516.527832 409.940216,511.412140 
	C408.873749,510.720581 407.416351,510.357300 406.127991,510.325317 
	C394.349548,510.032684 384.872009,504.375763 375.775665,497.653809 
	C371.095673,494.195404 366.325897,490.939392 360.003113,491.047394 
	C357.587280,491.088684 354.833679,490.514313 352.782776,489.296417 
	C345.628418,485.047699 338.747284,486.870483 331.681152,489.338409 
	C320.005737,493.416199 310.556854,500.857117 300.715546,508.103363 
	C282.598236,521.443298 268.384521,537.830444 258.021667,557.567871 
	C240.648026,590.658325 235.230087,625.392700 244.439102,662.046021 
	C246.509628,670.287048 247.108337,678.540039 244.779236,687.169861 
	C243.184158,693.080017 243.495987,699.850281 248.450195,704.867432 
	C251.355423,707.809570 253.348434,711.173462 254.566483,715.025513 
	C255.320267,717.409363 256.905609,718.926636 258.835236,720.348633 
	C273.188934,730.925598 288.765991,739.564270 303.908691,748.890442 
	C305.961884,750.154907 308.231812,750.131836 310.593323,750.330811 
	C320.812592,751.192322 327.948303,746.858582 332.563416,738.012024 
	C334.825104,733.676636 338.271271,732.432434 342.917511,732.998718 
	C367.035522,735.938232 390.397644,733.049805 412.999298,723.953918 
	C420.157959,721.072937 425.140869,723.129944 428.738647,729.924011 
	C429.781982,731.894287 430.822144,733.821716 432.955933,734.651550 
	C443.303589,738.675903 453.656647,739.834534 463.684937,733.801514 
	C474.280762,727.427124 484.187439,720.171082 492.368286,710.744019 
	C494.247833,708.578125 496.633057,706.851013 498.941162,704.782532 
	C499.832306,706.986267 497.468872,708.432617 499.204346,710.284607 
	C502.267151,708.591614 506.444336,706.085022 505.007294,702.849243 
	C502.219543,696.572083 507.363800,694.956116 509.962372,692.121704 
	C511.932648,689.972656 515.145691,690.964050 517.288940,692.750916 
	C519.592590,694.671509 517.855652,696.801880 516.649536,698.492432 
	C514.234924,701.877136 511.772461,705.264099 508.988190,708.341125 
	C502.531830,715.476440 496.787231,723.407959 487.997620,727.280701 
M401.386810,458.594849 
	C400.946350,463.733398 401.099884,468.888428 400.608673,474.045319 
	C399.773346,482.814667 404.977600,491.547455 412.282227,495.071686 
	C420.676849,499.121765 426.721924,494.878113 432.255219,489.362793 
	C437.562805,484.072510 442.606628,478.517059 447.749023,473.061829 
	C451.303131,469.291412 454.583069,469.862518 456.262054,474.709381 
	C457.567474,478.477966 458.329529,482.453247 459.837555,486.129730 
	C464.650879,497.864532 476.482330,501.170227 486.882446,493.883942 
	C492.282349,490.100830 496.252014,484.928101 500.479858,480.001434 
	C501.859161,478.394073 503.081848,476.041138 505.678772,477.120300 
	C507.998840,478.084442 507.174225,480.544037 507.334198,482.457703 
	C507.389465,483.119415 507.333466,483.790039 507.335724,484.456604 
	C507.359589,491.575195 510.646820,495.710724 517.720581,496.694946 
	C531.179260,498.567566 541.328308,492.673706 549.058167,482.228149 
	C553.642578,476.033173 552.550720,472.510376 545.596069,469.320251 
	C535.476440,464.678314 524.684631,464.232361 513.811646,464.774536 
	C506.332184,465.147461 498.872894,465.966278 491.391815,466.259399 
	C463.122559,467.366943 435.248993,464.539459 407.793427,457.621796 
	C405.859283,457.134460 403.631805,455.818207 401.386810,458.594849 
M380.335022,468.876434 
	C385.289795,464.709625 389.450714,459.821503 394.536438,454.313416 
	C383.742737,450.058197 374.017975,445.868042 364.039825,442.408997 
	C356.700867,439.864929 351.142426,443.748840 350.362854,451.507690 
	C349.450012,460.592621 353.157043,467.987701 360.584106,472.903046 
	C367.439392,477.440002 373.606964,473.644073 379.377197,469.625000 
	C379.513824,469.529877 379.645844,469.428009 380.335022,468.876434 
z"/>
<path fill="#000000" opacity="1.000000" stroke="none" 
	d="
M519.795959,410.973419 
	C516.450989,413.198181 513.634399,413.019104 510.909332,410.470734 
	C508.088715,407.833069 506.909485,404.747101 508.147308,401.026123 
	C509.473328,397.040009 511.548279,393.414185 514.325378,390.267273 
	C526.563721,376.399139 541.492371,369.508636 560.112305,373.853424 
	C573.769653,377.040253 585.717407,393.518524 585.294800,407.558716 
	C585.144348,412.558655 582.194275,415.701752 576.976318,416.530945 
	C572.152771,417.297455 569.997742,414.492035 568.642212,410.492676 
	C567.470764,407.036041 566.532166,403.461975 564.981995,400.180115 
	C561.668884,393.166107 555.822815,390.603058 548.125671,391.951782 
	C540.440613,393.298370 534.144409,397.082306 528.600037,402.326996 
	C525.700134,405.070129 522.920776,407.940613 519.795959,410.973419 
z"/>
<path fill="#000000" opacity="1.000000" stroke="none" 
	d="
M371.435059,377.457581 
	C369.242249,379.528778 367.432526,381.531738 364.962189,382.663757 
	C362.764374,383.670929 360.433136,384.161926 358.310913,382.636139 
	C356.170837,381.097534 355.921417,378.757263 356.330048,376.339691 
	C359.492493,357.630096 371.522186,349.206665 389.917450,350.302917 
	C412.546783,351.651489 420.142395,366.007111 421.906952,387.030121 
	C422.146667,389.886169 421.155243,392.658295 419.278717,394.925140 
	C417.087524,397.572113 414.553345,399.746704 410.754486,398.856293 
	C407.140167,398.009155 405.931824,395.314545 405.356476,391.899872 
	C404.669525,387.822906 404.398956,383.688446 402.961731,379.703949 
	C398.991089,368.695679 389.624756,365.071075 379.546082,371.088959 
	C376.717651,372.777771 374.297760,375.150757 371.435059,377.457581 
z"/>
<path fill="#000000" opacity="1.000000" stroke="none" 
	d="
M593.319519,334.824890 
	C597.264587,341.588959 595.268982,345.536194 587.868896,346.289124 
	C585.152405,346.565521 582.558777,346.169617 580.171204,344.756561 
	C568.866272,338.066162 558.018860,339.342682 547.352905,346.411896 
	C541.809082,350.086304 536.117004,353.554688 530.349243,356.867889 
	C525.823486,359.467712 521.126038,359.780823 516.872375,356.164734 
	C513.659363,353.433350 512.818176,350.098389 515.352539,346.447266 
	C516.482239,344.819763 517.721313,343.144714 519.264404,341.946777 
	C533.445679,330.937439 548.720276,322.671783 567.366577,322.621643 
	C577.886902,322.593353 586.459106,326.383270 593.319519,334.824890 
z"/>
<path fill="#000000" opacity="1.000000" stroke="none" 
	d="
M395.835022,323.270142 
	C391.299652,322.635406 387.176575,322.139008 383.100372,321.388092 
	C381.334229,321.062744 379.543762,320.431519 377.972717,319.562439 
	C371.864044,316.183289 371.612335,311.863892 377.048431,307.553741 
	C383.942780,302.087463 391.651459,301.872528 399.773926,303.718048 
	C413.842499,306.914642 425.030670,313.790436 430.655151,327.773651 
	C431.391266,329.603790 431.978546,331.565735 432.203186,333.516296 
	C432.894745,339.522278 430.521759,343.203949 425.357178,344.556335 
	C420.825714,345.742950 417.967438,344.302246 415.969025,338.067871 
	C412.816315,328.232544 405.865875,324.174774 395.835022,323.270142 
z"/>
<path fill="#000000" opacity="1.000000" stroke="none" 
	d="
M643.536682,723.495361 
	C646.352783,718.237000 649.009155,713.310913 651.665466,708.384827 
	C652.120911,708.464172 652.576355,708.543457 653.031738,708.622742 
	C651.911377,712.472351 652.855469,716.227844 652.675659,720.018250 
	C652.622803,721.131958 652.297119,722.767334 651.532898,723.227173 
	C645.973389,726.572693 644.577698,732.061646 642.828308,737.766907 
	C641.533325,741.990295 637.296387,742.920471 631.975708,742.429443 
	C636.013733,735.841064 639.695312,729.834351 643.536682,723.495361 
z"/>
<path fill="#000000" opacity="1.000000" stroke="none" 
	d="
M370.582062,653.852417 
	C373.600739,653.447998 375.864655,654.184204 375.421448,657.305054 
	C375.035004,660.026123 373.221344,662.322876 370.275116,662.646118 
	C367.658081,662.933228 366.992065,660.858948 367.080627,658.656921 
	C367.167755,656.490112 368.321899,654.944702 370.582062,653.852417 
z"/>
</svg>